<svg xmlns="http://www.w3.org/2000/svg" viewBox="0 0 16 16"><defs><style>.icon-canvas-transparent,.icon-vs-out{fill:#f6f6f6;}.icon-canvas-transparent{opacity:0;}.icon-vs-fg{fill:#f0eff1;}.icon-folder{fill:#dcb67a;}</style></defs><title>Folder_16x</title><g id="canvas"><path class="icon-canvas-transparent" d="M0,0H16V16H0Z"/></g><g id="outline"><path class="icon-vs-out" d="M1.5,1H9.61l1,2H13.5A1.5,1.5,0,0,1,15,4.5v8A1.5,1.5,0,0,1,13.5,14H1.5A1.5,1.5,0,0,1,0,12.5V2.5A1.5,1.5,0,0,1,1.5,1Z"/></g><g id="iconFg"><path class="icon-vs-fg" d="M2,3H8.374l.5,1H2Z"/></g><g id="iconBg"><path class="icon-folder" d="M13.5,4h-3.5l-1-2H1.5a.5.5,0,0,0-.5.5v10a.5.5,0,0,0,.5.5h12a.5.5,0,0,0,.5-.5v-8A.5.5,0,0,0,13.5,4ZM2,3H8.374l.5,1H2Z"/></g></svg>